<svg width="84" height="30" viewBox="0 0 84 30" fill="none" xmlns="http://www.w3.org/2000/svg">
<path d="M29.6992 8.71863C29.5063 9.84999 29.3338 10.8633 29.1612 11.8755C28.8751 13.5554 28.5837 15.2331 28.3115 16.9151C28.2729 17.1566 28.1658 17.2017 27.9611 17.2006C27.1757 17.1964 26.3913 17.1888 25.6059 17.2039C25.3144 17.2092 25.2855 17.0804 25.3284 16.8443C25.9231 13.5586 26.5167 10.2729 27.105 6.98723C27.2303 6.28738 27.3493 5.58645 27.4479 4.88337C27.4929 4.56135 27.6086 4.42717 27.9601 4.43898C28.7798 4.46581 29.6016 4.47225 30.4214 4.43683C30.8157 4.41966 30.9764 4.57423 31.1168 4.91879C32.1637 7.481 33.232 10.0346 34.2928 12.5915C34.3185 12.6537 34.3196 12.7342 34.46 12.7374C34.7268 11.1799 34.9947 9.61599 35.2626 8.05097C35.4479 6.96577 35.6365 5.88056 35.8144 4.7932C35.8562 4.53773 35.9666 4.43576 36.2377 4.4422C36.9513 4.45937 37.666 4.47225 38.3775 4.43898C38.8029 4.41966 38.8426 4.59677 38.7794 4.9424C38.4161 6.93571 38.0625 8.93116 37.7067 10.9266C37.3574 12.8856 36.9985 14.8424 36.6727 16.8046C36.6181 17.1309 36.5045 17.2114 36.2012 17.206C35.3451 17.1899 34.4889 17.1888 33.6328 17.2071C33.3381 17.2135 33.2063 17.118 33.0906 16.8368C32.0405 14.2746 30.9689 11.7209 29.9038 9.16516C29.8545 9.05246 29.802 8.94512 29.6992 8.71863Z" fill="#4B5BA9"/>
<path d="M8.8965 10.5687C10.0484 10.837 10.7792 11.5047 10.9989 12.5942C11.2442 13.8135 10.9506 14.9299 10.0238 15.8187C9.06044 16.7418 7.84747 17.11 6.56912 17.1583C4.68108 17.2302 2.78874 17.1808 0.898555 17.2044C0.539591 17.2087 0.527804 17.037 0.57388 16.7804C1.28645 12.7777 2.00009 8.77393 2.71052 4.77122C2.74053 4.60484 2.75981 4.44275 2.98162 4.45027C5.00897 4.51897 7.05131 4.24418 9.06259 4.6145C10.4995 4.87963 11.3975 5.78665 11.4843 6.88796C11.6128 8.51094 10.8563 9.75931 9.41084 10.3153C9.25332 10.3744 9.06902 10.3808 8.8965 10.5687ZM3.81206 14.815C4.9436 14.7657 6.03443 14.9492 7.07917 14.5145C7.76924 14.2279 8.16035 13.5817 8.05427 12.8582C7.96533 12.2571 7.40278 11.8224 6.64199 11.7998C6.0355 11.7816 5.42365 11.8449 4.82359 11.7784C4.37033 11.7279 4.27818 11.934 4.2246 12.2872C4.09709 13.1105 3.95672 13.9316 3.81206 14.815ZM5.95299 9.59079C6.56912 9.56825 7.15954 9.64124 7.70709 9.35142C8.32966 9.02081 8.62219 8.44869 8.49574 7.75956C8.41324 7.31303 7.93962 6.97276 7.28384 6.90299C7.08989 6.8826 6.89273 6.88152 6.69878 6.89011C6.2048 6.9105 5.55867 6.68187 5.25864 6.97813C4.97039 7.26258 5.02825 7.90447 4.94467 8.39072C4.87931 8.76963 4.65322 9.30526 4.81716 9.49525C5.04861 9.76146 5.58438 9.54785 5.95299 9.59079Z" fill="#4B5BA9"/>
<path d="M31.2508 28.3475C31.4565 28.296 31.5015 28.1243 31.583 27.9955C33.3039 25.2959 35.0301 22.5995 36.7317 19.887C36.9728 19.5027 37.2321 19.346 37.6757 19.39C38.0647 19.4287 38.4622 19.4233 38.8512 19.3911C39.1887 19.3632 39.2745 19.5328 39.3259 19.8129C39.8477 22.6231 40.3663 25.4333 40.9118 28.2381C41.0028 28.7071 40.9686 28.9175 40.4199 28.8585C39.9613 28.8102 39.492 28.8295 39.0301 28.8553C38.7537 28.8703 38.6433 28.7597 38.609 28.5096C38.5822 28.3164 38.5469 28.1232 38.5083 27.9321C38.309 26.9446 38.309 26.9446 37.3264 26.9446C36.5956 26.9446 35.8638 26.9553 35.133 26.9392C34.8565 26.9328 34.6443 26.9768 34.5393 27.2623C34.5158 27.3278 34.4611 27.3815 34.4236 27.4416C34.1354 27.9064 33.9832 28.5708 33.5289 28.7855C33.0745 29.0002 32.4456 28.8467 31.8937 28.8478C31.0376 28.851 30.1814 28.8413 29.3252 28.8531C29.0627 28.8563 28.9266 28.793 28.8173 28.5182C28.3919 27.4459 27.8926 26.4015 27.4854 25.3238C27.3172 24.8772 27.0129 25.0522 26.745 25.0211C26.4332 24.9846 26.4267 25.2347 26.3924 25.4451C26.2317 26.4272 26.0635 27.4083 25.9145 28.3926C25.8642 28.7222 25.7506 28.8918 25.3734 28.8574C24.9491 28.8188 24.5162 28.8274 24.0908 28.8553C23.7522 28.8778 23.659 28.7812 23.7211 28.4399C24.0565 26.6054 24.3737 24.7678 24.6962 22.9312C24.8709 21.934 25.0562 20.9389 25.2105 19.9385C25.2705 19.551 25.3906 19.3664 25.8385 19.3857C26.9068 19.4308 27.9772 19.4136 29.0477 19.419C29.2813 19.4201 29.5042 19.4598 29.7314 19.5145C31.0129 19.8194 31.7458 20.5128 31.8401 21.5368C31.9751 22.9881 31.3826 24.0883 30.1021 24.5649C29.6028 24.7506 29.5867 24.9202 29.8021 25.341C30.31 26.3317 30.7718 27.345 31.2508 28.3475ZM27.6344 23.4067C28.3823 23.4067 28.7723 23.338 29.0884 23.1523C29.6885 22.8002 29.8214 21.8062 29.2867 21.4778C28.6737 21.1021 27.9537 21.1375 27.3086 21.2663C26.9143 21.3447 27.0964 21.9383 26.9818 22.2893C26.9539 22.373 26.9379 22.461 26.9229 22.549C26.7825 23.4067 26.7825 23.4067 27.6344 23.4067ZM37.6661 22.0134C37.6221 22.0145 37.5782 22.0156 37.5343 22.0166C36.9267 23.0471 36.3192 24.0776 35.6687 25.1821C36.4467 25.1821 37.1346 25.1842 37.8236 25.181C37.9683 25.1799 38.1172 25.1735 38.085 24.9524C37.9425 23.9724 37.8054 22.9923 37.6661 22.0134Z" fill="#4B5BA9"/>
<path d="M43.8305 9.67557C44.691 8.98108 45.365 8.10411 46.1375 7.32268C46.9894 6.46288 47.8081 5.56981 48.6374 4.6864C48.7639 4.55223 48.8807 4.44274 49.0853 4.44381C50.2394 4.45025 51.3924 4.44703 52.5378 4.44703C51.7063 5.31112 50.9037 6.17521 50.069 7.00602C48.9707 8.09875 47.8541 9.17429 46.728 10.238C46.4751 10.4774 46.4965 10.6363 46.6797 10.9035C47.9988 12.8249 49.3007 14.7571 50.6069 16.687C50.7034 16.8298 50.7966 16.9747 50.9434 17.1969C49.709 17.1969 48.5592 17.1915 47.4095 17.2012C47.1705 17.2033 47.1201 17.0294 47.0323 16.8867C45.9222 15.0877 44.8153 13.2854 43.7073 11.4853C43.6709 11.4263 43.6291 11.3715 43.5198 11.2116C43.3998 11.8224 43.2894 12.3387 43.1994 12.8582C42.9712 14.1688 42.7483 15.4805 42.534 16.7933C42.4868 17.081 42.385 17.2194 42.0561 17.2066C41.3435 17.1786 40.6298 17.1862 39.9173 17.2033C39.6162 17.2108 39.5037 17.1346 39.5615 16.8137C40.0405 14.1602 40.5088 11.5036 40.9813 8.84905C41.2149 7.53843 41.4678 6.23103 41.6735 4.91611C41.7282 4.56403 41.8235 4.42449 42.1954 4.43845C42.9079 4.46528 43.6216 4.45669 44.3341 4.44167C44.6577 4.43523 44.7038 4.53076 44.6492 4.85171C44.3759 6.45751 43.9945 8.04508 43.8295 9.67021C43.8069 9.67772 43.7844 9.68416 43.7641 9.69489C43.7619 9.69597 43.7727 9.72173 43.778 9.73676C43.793 9.71636 43.8112 9.69597 43.8305 9.67557Z" fill="#4B5BA9"/>
<path d="M10.6719 17.1976C11.6084 15.7239 12.4817 14.3456 13.3582 12.9706C15.0962 10.2398 16.8386 7.51126 18.5712 4.77624C18.7202 4.54116 18.8745 4.42953 19.1659 4.44026C19.8785 4.46388 20.5932 4.46495 21.3058 4.44026C21.6198 4.42953 21.7323 4.52399 21.7891 4.83527C22.1545 6.82429 22.5466 8.809 22.9227 10.7959C23.3031 12.8021 23.6664 14.8104 24.0629 16.8134C24.1293 17.1483 24.0521 17.2105 23.7457 17.2052C22.9431 17.1912 22.1405 17.1912 21.3379 17.2052C21.0593 17.2094 20.9308 17.1429 20.8943 16.8327C20.8215 16.2155 20.6779 15.6079 20.5932 14.9918C20.5611 14.7599 20.4668 14.6891 20.2535 14.6902C18.7909 14.6934 17.3283 14.6977 15.8656 14.6859C15.6127 14.6837 15.5324 14.8404 15.4327 15.0068C15.048 15.6466 14.6558 16.2831 14.2819 16.9293C14.1833 17.0989 14.0858 17.2041 13.8747 17.203C12.8407 17.1933 11.8077 17.1976 10.6719 17.1976ZM19.5613 7.76136C18.6462 9.31887 17.8008 10.7583 16.9275 12.246C17.9026 12.246 18.793 12.2117 19.6803 12.26C20.1775 12.2868 20.2214 12.0958 20.1571 11.6922C19.9557 10.4341 19.7735 9.17503 19.5613 7.76136Z" fill="#4B5BA9"/>
<path d="M48.6122 25.5836C48.9551 23.5817 49.2926 21.6936 49.5926 19.8001C49.6441 19.4727 49.7523 19.3836 50.0587 19.3954C50.5399 19.4147 51.0221 19.4169 51.5032 19.3944C51.8 19.3804 51.8771 19.491 51.8279 19.7625C51.3039 22.6618 50.7756 25.561 50.272 28.4646C50.2152 28.792 50.0995 28.8703 49.7962 28.8575C49.298 28.8349 48.7954 28.822 48.2993 28.8607C47.8846 28.8929 47.6821 28.7641 47.5224 28.3605C46.8045 26.5453 46.0458 24.7463 45.3001 22.9419C45.2604 22.8464 45.1993 22.7595 45.1061 22.5931C44.9197 23.6761 44.7429 24.6884 44.5714 25.7017C44.4139 26.6291 44.2575 27.5565 44.1085 28.485C44.0656 28.7512 43.9649 28.8789 43.6627 28.8596C43.2009 28.8295 42.7348 28.8306 42.273 28.8585C41.9236 28.88 41.8401 28.7609 41.9011 28.4324C42.1412 27.1411 42.3683 25.8466 42.5966 24.5531C42.8645 23.0332 43.1452 21.5143 43.3863 19.989C43.457 19.5425 43.5985 19.3332 44.086 19.3911C44.49 19.4394 44.9122 19.4502 45.314 19.389C45.8905 19.302 46.1155 19.5768 46.3084 20.0663C46.9813 21.7655 47.6949 23.4486 48.3936 25.137C48.4418 25.2498 48.5007 25.356 48.6122 25.5836Z" fill="#4B5BA9"/>
<path d="M83.2301 28.8487C82.4276 28.8487 81.685 28.8391 80.9424 28.8541C80.7013 28.8595 80.6627 28.7199 80.591 28.546C80.1516 27.4801 79.6716 26.4303 79.2655 25.3527C79.0951 24.9008 78.7822 25.0381 78.4886 25.0188C78.1629 24.9984 78.2068 25.2389 78.1714 25.4536C78.0064 26.469 77.8103 27.4791 77.6549 28.4966C77.6142 28.7628 77.5414 28.8659 77.2638 28.8552C76.7474 28.8348 76.2298 28.8444 75.7123 28.8509C75.4862 28.8541 75.4197 28.8144 75.4679 28.5471C75.9748 25.753 76.4559 22.9547 76.9552 20.1585C77.0913 19.3953 77.1095 19.3813 77.9185 19.4028C79.0737 19.4318 80.2363 19.2847 81.3839 19.5026C82.7705 19.7667 83.5034 20.429 83.6116 21.6398C83.7263 22.9171 83.2409 23.8982 82.0129 24.5186C81.3539 24.8514 81.3528 24.8428 81.6732 25.5223C82.1854 26.6096 82.6933 27.7002 83.2301 28.8487ZM79.408 23.4055C80.3145 23.4055 80.5524 23.3551 80.9371 23.0803C81.5478 22.6445 81.5436 21.6924 80.9092 21.3972C80.307 21.117 79.618 21.1074 79.0329 21.2834C78.675 21.3907 78.7951 22.0348 78.7029 22.4394C78.6954 22.4738 78.6954 22.5103 78.689 22.5446C78.5282 23.4055 78.5282 23.4055 79.408 23.4055Z" fill="#4B5BA9"/>
<path d="M67.6172 28.8501C68.1508 25.7705 68.6759 22.7478 69.1956 19.723C69.2363 19.4869 69.3466 19.3945 69.5888 19.3956C71.389 19.4021 73.1902 19.4042 74.9904 19.3945C75.268 19.3935 75.3365 19.4933 75.2765 19.7423C75.2187 19.9838 75.1662 20.2264 75.1179 20.4701C74.9583 21.2687 74.9594 21.2687 74.1353 21.2687C73.262 21.2687 72.3877 21.2794 71.5144 21.2633C71.195 21.2569 71.0032 21.3213 70.9979 21.6873C70.9947 21.916 70.94 22.1446 70.9025 22.3722C70.7836 23.086 70.7825 23.086 71.524 23.086C72.3802 23.086 73.2363 23.0978 74.0914 23.0795C74.4236 23.072 74.49 23.1955 74.4225 23.4917C74.3196 23.9382 74.3807 24.5318 74.1107 24.8013C73.8278 25.0825 73.231 24.8764 72.7713 24.8861C72.1294 24.9 71.4876 24.9022 70.8457 24.8839C70.5446 24.8753 70.3935 24.9505 70.3603 25.2832C70.3067 25.8135 69.9628 26.508 70.1835 26.8193C70.4171 27.1488 71.1747 26.9041 71.703 26.9159C72.4509 26.932 73.201 26.9384 73.9489 26.9116C74.2907 26.8998 74.4011 27.0039 74.325 27.3302C74.2607 27.6071 74.1525 27.8884 74.1632 28.1642C74.19 28.8276 73.8235 28.8684 73.2963 28.8598C71.6033 28.833 69.9092 28.8501 68.2151 28.8501C68.0222 28.8501 67.8294 28.8501 67.6172 28.8501Z" fill="#4B5BA9"/>
<path d="M55.445 29.081C54.0916 29.0584 53.0179 28.7622 52.1018 27.9936C51.8307 27.7661 51.6935 27.561 52.0975 27.3303C52.2196 27.2605 52.3171 27.1489 52.4275 27.0598C52.704 26.8365 52.9515 26.5381 53.2676 26.4125C53.6641 26.2536 53.7969 26.7667 54.1055 26.9106C54.7452 27.2068 55.3775 27.3496 56.0632 27.1263C56.5111 26.9803 56.7758 26.6755 56.8433 26.2086C56.9044 25.7846 56.6944 25.4894 56.3633 25.2693C55.9914 25.0225 55.5768 24.8614 55.1546 24.7219C54.1313 24.3827 53.3051 23.817 53.1637 22.662C53.0019 21.3428 53.5687 20.3521 54.7131 19.6898C56.1061 18.8837 58.3145 19.0007 59.4707 19.9098C59.8415 20.2018 59.9636 20.4337 59.4975 20.7267C59.3936 20.7922 59.3078 20.8877 59.2146 20.9714C58.9757 21.184 58.7678 21.4845 58.4881 21.5865C58.1934 21.6938 58.0327 21.287 57.7723 21.1593C57.0876 20.8233 56.2068 20.9006 55.73 21.3783C55.236 21.8731 55.3132 22.5053 55.9304 22.837C56.2561 23.012 56.6054 23.1494 56.9526 23.2814C58.5021 23.8685 59.2993 24.8368 59.2103 26.04C59.1 27.5342 58.1142 28.6108 56.5336 28.9457C56.1168 29.0316 55.6946 29.1078 55.445 29.081Z" fill="#4B5BA9"/>
<path d="M63.2992 23.2816C64.3418 23.2816 65.3533 23.2902 66.3648 23.2773C66.711 23.273 66.9092 23.2912 66.7581 23.7389C66.6134 24.1693 66.7613 24.779 66.442 25.0441C66.1216 25.3103 65.5526 25.1128 65.0919 25.1235C64.54 25.1364 63.985 25.1525 63.4342 25.1182C63.0634 25.0946 62.9445 25.2438 62.8899 25.5819C62.7313 26.5619 62.532 27.5355 62.3777 28.5155C62.3359 28.7828 62.2459 28.8697 61.9801 28.8579C61.5172 28.8375 61.0511 28.8257 60.5903 28.8601C60.1971 28.8901 60.1489 28.727 60.2089 28.3985C60.4725 26.9311 60.7221 25.4617 60.9815 23.9943C61.2183 22.6494 61.4711 21.3065 61.693 19.9583C61.7605 19.5472 61.8933 19.3755 62.3627 19.3873C63.9839 19.4249 65.6073 19.4152 67.2285 19.3927C67.6368 19.3873 67.805 19.4946 67.6625 19.8961C67.505 20.3426 67.6957 20.9899 67.3121 21.2228C66.9746 21.4278 66.4152 21.269 65.9545 21.27C65.3126 21.2711 64.6707 21.2743 64.0289 21.2679C63.7878 21.2657 63.6464 21.3033 63.611 21.606C63.5478 22.1513 63.4138 22.6858 63.2992 23.2816Z" fill="#4B5BA9"/>
<path d="M20.6363 19.4C21.7239 19.4 22.8115 19.4064 23.8981 19.3957C24.2184 19.3925 24.3985 19.4 24.2731 19.8272C24.1338 20.2995 24.2784 20.9693 23.9431 21.242C23.5852 21.5339 22.9497 21.3203 22.4354 21.3268C21.3724 21.3386 21.4014 21.3353 21.2278 22.3959C20.8892 24.4622 20.512 26.5209 20.1595 28.5851C20.1262 28.7794 20.0534 28.8577 19.8519 28.8545C19.299 28.8449 18.7461 28.8384 18.1943 28.8556C17.8985 28.8653 17.8867 28.7343 17.9275 28.4992C18.3271 26.2451 18.7065 23.9877 19.1265 21.7379C19.1951 21.3686 19.1104 21.316 18.7858 21.3257C18.1986 21.3439 17.6081 21.3053 17.022 21.3396C16.6245 21.3622 16.5687 21.1872 16.6309 20.8673C16.7016 20.5024 16.8002 20.1385 16.8281 19.7703C16.8527 19.459 16.9856 19.3914 17.2674 19.3946C18.3904 19.4075 19.5133 19.4 20.6363 19.4Z" fill="#4B5BA9"/>
<path d="M54.33 8.19751C54.3075 7.96458 54.3718 7.77781 54.5272 7.60499C55.3094 6.73339 56.0863 5.85642 56.8085 4.93115C56.9564 4.74223 57.0142 4.66172 56.8374 4.46207C56.0713 3.59047 55.3298 2.69633 54.5679 1.82043C54.2904 1.50163 54.2497 1.15599 54.3943 0.787818C54.5015 0.516247 54.7651 0.560257 54.9933 0.573138C55.2837 0.589239 55.3973 0.851149 55.5495 1.02826C56.4313 2.05658 57.2918 3.10314 58.1661 4.13898C58.4737 4.50286 58.4812 4.85708 58.1769 5.21989C57.2778 6.29651 56.3745 7.36884 55.483 8.4519C55.2494 8.73528 54.9815 8.92635 54.6183 8.80505C54.3461 8.71596 54.2958 8.4562 54.33 8.19751Z" fill="#4B5BA9"/>
<path d="M61.585 4.69545C61.6589 4.99922 61.5207 5.18707 61.3514 5.38672C60.4888 6.40216 59.6412 7.4294 58.7819 8.44698C58.6511 8.60155 58.5054 8.77223 58.2986 8.80872C58.0522 8.85166 57.7253 8.85702 57.6514 8.59404C57.5796 8.33642 57.4992 8.01977 57.7371 7.74605C58.5515 6.81112 59.3476 5.86116 60.1599 4.92408C60.3249 4.73409 60.3024 4.61172 60.1384 4.42602C59.3166 3.49646 58.4979 2.56367 57.7093 1.6062C57.5014 1.35395 57.5057 0.942836 57.7071 0.722789C57.9354 0.47376 58.3179 0.439411 58.5911 0.754991C59.2716 1.54287 59.9402 2.3404 60.6153 3.13258C60.8306 3.38482 61.0449 3.63815 61.27 3.88181C61.4928 4.12332 61.6964 4.36377 61.585 4.69545Z" fill="#4B5BA9"/>
<path d="M43.8339 9.67437C43.8121 9.69872 43.7902 9.72306 43.7671 9.7474C43.7606 9.73075 43.7478 9.69872 43.7503 9.69744C43.7748 9.68462 43.8031 9.67694 43.8288 9.66797C43.8288 9.66925 43.8339 9.67437 43.8339 9.67437Z" fill="white"/>
</svg>
