<svg width="119" height="28" viewBox="0 0 119 28" fill="none" xmlns="http://www.w3.org/2000/svg">
<path d="M81.2512 17.4484C81.2512 18.5019 81.2046 19.5581 81.2649 20.6088C81.3142 21.4521 81.1389 21.8116 80.169 21.8033C76.9363 21.7784 76.9418 21.8226 76.9308 18.6152C76.9281 17.288 76.9609 15.9553 76.8513 14.6364C76.7281 13.1461 76.1144 12.6235 74.7747 12.6291C73.4597 12.6346 72.6707 13.3369 72.6186 14.7609C72.5501 16.6825 72.5556 18.6097 72.6159 20.5314C72.646 21.4604 72.4049 21.8033 71.4132 21.8005C68.2599 21.795 68.2708 21.8364 68.2571 18.6678C68.2516 17.2493 68.3393 15.8309 68.1421 14.4152C67.964 13.1323 67.2051 12.6069 65.9915 12.6401C64.7449 12.6761 64.0134 13.3535 63.9696 14.5922C63.8984 16.6051 63.871 18.6235 63.9203 20.6364C63.9449 21.5544 63.6436 21.7894 62.7587 21.7977C59.5287 21.8281 59.5287 21.8586 59.5314 18.5931C59.5314 17.4014 59.5478 16.2125 59.5341 15.0208C59.5067 12.2751 60.8218 10.2816 63.1094 8.97929C65.3805 7.68528 67.6708 7.89818 69.7831 9.43551C70.2981 9.80878 70.6023 9.73136 71.0817 9.3968C73.2186 7.90648 75.487 7.6991 77.7664 9.00694C79.9882 10.2788 81.18 12.2364 81.2183 14.8438C81.232 15.7148 81.2211 16.583 81.2211 17.4539C81.2375 17.4484 81.243 17.4484 81.2512 17.4484Z" fill="#303069"/>
<path d="M57.8593 17.9267C57.8593 18.2475 57.8593 18.5654 57.8593 18.8862C57.8621 22.0797 57.7497 22.1765 54.5005 21.7728C54.3663 21.7562 54.1389 21.7839 54.1088 21.7175C53.4293 20.2714 52.5061 21.4134 51.7636 21.5544C49.3884 22.0051 47.1117 21.9055 45.5173 19.9037C43.8269 17.7802 43.5228 15.3387 44.4625 12.6788C45.9419 8.50368 51.6431 6.22534 55.8539 10.3452C57.1771 11.6392 57.7853 13.417 57.8347 15.3194C57.8566 16.1876 57.8374 17.0558 57.8374 17.924C57.8484 17.9267 57.8538 17.9267 57.8593 17.9267ZM53.6156 15.0318C53.6156 13.2235 52.3965 11.8659 50.7828 11.8797C49.2021 11.8963 47.972 13.3092 47.9884 15.0926C48.0076 16.9783 49.1692 18.2558 50.8404 18.2309C52.5472 18.2088 53.6156 16.9728 53.6156 15.0318Z" fill="#303069"/>
<path d="M118.603 15.0231C118.608 19.1484 115.871 21.7088 111.521 21.789C107.499 21.8636 104.359 18.9604 104.488 14.9678C104.614 11.0056 107.392 8.23781 111.507 8.18804C115.318 8.14104 118.926 11.1493 118.603 15.0231ZM108.748 15.0148C108.757 16.9751 109.926 18.4185 111.513 18.4268C113.115 18.4351 114.323 16.9917 114.329 15.0673C114.334 13.0599 113.217 11.7715 111.491 11.7936C109.822 11.8185 108.74 13.0876 108.748 15.0148Z" fill="#303069"/>
<path d="M89.8616 8.20703C93.8395 8.2098 96.9846 10.8421 96.9654 15.0448C96.9463 19.1038 94.1984 21.6946 89.9465 21.7914C85.4645 21.8937 82.818 18.6476 82.8125 15.0089C82.807 11.1213 85.8124 8.21256 89.8616 8.20703ZM87.1767 14.9757C87.1576 17.1186 88.1411 18.3932 89.8342 18.4209C91.53 18.4485 92.7491 17.008 92.7437 14.984C92.7409 13.1398 91.5656 11.8153 89.9191 11.8043C88.163 11.7877 87.1959 12.9075 87.1767 14.9757Z" fill="#303069"/>
<path d="M7.40625 17.2628C7.51036 15.5927 7.24735 13.7485 8.0391 11.9153C9.587 8.32915 14.4553 7.18722 17.2278 9.22777C19.1921 10.6739 20.1209 12.4324 20.1839 14.755C20.2387 16.7679 20.1839 18.7808 20.2195 20.7937C20.2305 21.4794 20.0305 21.7421 19.3017 21.7835C16.0744 21.9688 16.0799 21.9937 16.0744 18.7255C16.0717 17.3983 16.1155 16.0683 16.0087 14.7494C15.8854 13.2508 15.0854 12.59 13.6855 12.6287C12.3266 12.6674 11.565 13.4084 11.5212 14.9153C11.4664 16.8342 11.4719 18.7586 11.5212 20.6803C11.5431 21.5126 11.2801 21.7725 10.439 21.7891C7.40625 21.8499 7.40625 21.8803 7.40625 18.8139C7.40625 18.3605 7.40625 17.9015 7.40625 17.2628Z" fill="#303069"/>
<path d="M28.7078 8.19832C30.0475 8.18173 31.4638 8.45823 32.8446 8.97528C33.4747 9.2103 33.6281 9.52828 33.2446 10.0923C33.1432 10.2416 33.0117 10.3965 32.9734 10.5651C32.6391 12.0555 31.9104 12.4509 30.4748 11.7264C29.6283 11.3006 28.6009 11.4361 27.6448 11.5191C27.075 11.5688 26.4996 11.7403 26.4476 12.4121C26.3928 13.1145 27.0421 13.1034 27.5023 13.2333C28.7708 13.59 30.1077 13.5928 31.357 14.0933C33.283 14.8675 33.9213 15.6499 33.9185 17.5025C33.9158 19.3688 33.0665 20.6435 31.283 21.2324C28.505 22.1504 25.7106 21.8463 22.9381 21.155C22.1409 20.9559 21.8066 20.461 22.2806 19.6205C22.4779 19.2693 22.5628 18.849 22.6751 18.4536C22.8833 17.7209 23.286 17.5578 23.9956 17.8536C25.3161 18.4066 26.727 18.5421 28.1407 18.5117C28.6694 18.5006 29.3598 18.4343 29.4667 17.779C29.5845 17.0628 28.8776 16.9135 28.3818 16.7836C27.1078 16.449 25.8175 16.1836 24.5298 15.9071C23.286 15.6416 22.5162 14.9421 22.297 13.6426C22.0669 12.285 22.0587 10.9854 23.1518 9.96238C24.675 8.53012 26.5572 8.13196 28.7078 8.19832Z" fill="#303069"/>
<path d="M35.39 12.2237C35.39 10.5315 35.4201 8.83661 35.3763 7.14721C35.3544 6.32601 35.6119 5.96656 36.4639 6.03569C37.1406 6.09099 37.831 6.08822 38.5104 6.03845C39.3131 5.97762 39.7378 6.22371 39.6063 7.10297C39.4748 7.98776 39.9378 8.18684 40.7268 8.17302C41.2774 8.16472 42.1377 7.83292 42.3349 8.44951C42.6336 9.38408 42.6226 10.4707 42.3322 11.4191C42.1788 11.9168 41.4172 11.6956 40.9542 11.6431C39.8501 11.5186 39.5049 11.9638 39.5843 13.0339C39.6665 14.173 39.5843 15.3205 39.6145 16.4624C39.6528 17.8836 40.1542 18.3039 41.5651 18.2541C43.2445 18.1933 42.7733 19.7555 43.1842 20.5933C43.6445 21.5334 42.6692 21.4228 42.1788 21.5638C40.6336 22.0034 39.0611 21.8569 37.6228 21.2735C36.1269 20.668 35.653 19.2025 35.4749 17.7067C35.3681 16.8025 35.4174 15.879 35.4091 14.9666C35.4009 14.0514 35.4064 13.1362 35.4064 12.2209C35.4009 12.2237 35.3954 12.2237 35.39 12.2237Z" fill="#303069"/>
<path d="M102.825 15.9535C102.825 18.1517 102.877 20.3498 102.812 22.548C102.738 24.9756 101.472 26.524 99.4226 27.113C98.3843 27.4116 97.8007 27.0743 97.5953 26.1176C97.4473 25.4236 96.346 24.63 97.1706 24.0936C98.6528 23.1231 98.6171 21.7379 98.6363 20.3498C98.6884 16.7775 98.7021 13.2051 98.6308 9.63554C98.6089 8.49361 98.9322 8.15075 100.075 8.17287C102.85 8.2254 102.85 8.1701 102.85 11.0097C102.85 12.6577 102.85 14.3056 102.85 15.9563C102.842 15.9535 102.833 15.9535 102.825 15.9535Z" fill="#303069"/>
<path d="M5.36691 9.74118C5.37787 13.4462 5.36965 17.1513 5.41623 20.8564C5.42719 21.7357 5.0409 22.1172 4.25462 22.2223C3.93957 22.2638 3.62177 22.2859 3.30397 22.2914C0.904056 22.3329 0.630093 22.073 0.632833 19.7089C0.638312 16.3688 0.657489 13.0287 0.668448 9.69141C2.23004 10.084 3.79711 10.1725 5.36691 9.74118Z" fill="#303069"/>
<path d="M5.29741 2.85849C5.25358 4.3101 4.48374 5.10642 3.11666 5.11195C1.80986 5.11471 0.793457 4.06402 0.820854 2.74236C0.84551 1.52577 2.03451 0.311942 3.16872 0.342357C4.37415 0.375537 5.3385 1.51471 5.29741 2.85849Z" fill="#D95C37"/>
<path d="M5.37034 9.74117C3.80053 10.1725 2.23346 10.084 0.671875 9.6914C1.03077 7.84163 2.49921 8.26744 3.69643 8.24808C4.63338 8.23426 5.41691 8.56052 5.37034 9.74117Z" fill="#D95C37"/>
</svg>
