<svg width="65" height="20" viewBox="0 0 65 20" fill="none" xmlns="http://www.w3.org/2000/svg">
<path d="M27.3803 6.53125C23.8903 6.53125 21.0586 9.36438 21.0586 12.8392C21.0586 16.314 23.8979 19.1472 27.3803 19.1472C30.8627 19.1472 33.702 16.314 33.702 12.8392C33.702 9.36438 30.8703 6.53125 27.3803 6.53125ZM27.3803 16.1619C25.5476 16.1619 24.0555 14.673 24.0555 12.8443C24.0555 11.0156 25.5476 9.52671 27.3803 9.52671C29.213 9.52671 30.7051 11.0156 30.7051 12.8443C30.7051 14.673 29.213 16.1619 27.3803 16.1619Z" fill="black"/>
<path d="M48.4139 4.34798C49.5019 4.34798 50.3864 3.46786 50.3864 2.37975C50.3864 1.29165 49.5019 0.414062 48.4139 0.414062C47.326 0.414062 46.4414 1.29418 46.4414 2.38229C46.4414 3.47039 47.326 4.34798 48.4139 4.34798Z" fill="black"/>
<path d="M14.482 6.53787C14.3168 6.52519 14.1592 6.51758 13.9965 6.51758C12.4714 6.51758 11.025 7.14153 9.98792 8.24231C8.95083 7.1466 7.50957 6.51758 5.99968 6.51758C2.97482 6.52011 0.511719 8.97025 0.511719 11.9885V18.8925H3.46795V12.0722C3.46795 10.8193 4.49996 9.66522 5.71499 9.54094C5.80141 9.53333 5.8853 9.52825 5.9641 9.52825C7.33164 9.52825 8.44753 10.6417 8.45516 12.0063V18.89H11.4775V12.0596C11.4775 10.8142 12.5019 9.66015 13.7245 9.53586C13.8109 9.52825 13.8948 9.52318 13.9736 9.52318C15.3412 9.52318 16.4647 10.6316 16.4698 11.9885V18.8925H19.4921V12.0722C19.4921 10.6899 18.9786 9.35578 18.0534 8.32855C17.1307 7.29371 15.8623 6.65708 14.482 6.53787Z" fill="black"/>
<path d="M38.3661 0.707031H35.3438V18.903H38.3661V0.707031ZM44.1514 0.707031H41.1291V18.903H44.1514V0.707031ZM49.9343 6.83238H46.9119V18.8979H49.9343V6.83238Z" fill="black"/>
<path d="M64.0585 12.5567C64.0585 10.9562 63.4332 9.44963 62.3046 8.30065C61.1684 7.15421 59.6687 6.51758 58.0724 6.51758H57.9936C56.3388 6.53787 54.773 7.19225 53.6037 8.3666C52.4344 9.54094 51.7761 11.0932 51.7583 12.752C51.7379 14.4437 52.3887 16.0442 53.591 17.2566C54.7933 18.469 56.3845 19.1386 58.08 19.1386H58.0876C60.3092 19.1386 62.391 17.9516 63.5298 16.0442L63.6747 15.8007L61.1786 14.5756L61.054 14.7785C60.4236 15.8083 59.3408 16.417 58.1384 16.417C56.6006 16.417 55.2737 15.3949 54.8645 13.939H64.0585V12.5567ZM57.9529 9.25686C59.3331 9.25686 60.5685 10.1623 61.0032 11.4458H54.9102C55.3373 10.1623 56.5726 9.25686 57.9529 9.25686Z" fill="black"/>
</svg>
