<svg width="101" height="25" viewBox="0 0 101 25" fill="none" xmlns="http://www.w3.org/2000/svg">
<path d="M37.5227 5.53516H31.973C31.7893 5.53504 31.6116 5.60057 31.4719 5.71993C31.3321 5.8393 31.2397 6.00465 31.211 6.1862L28.9665 20.4222C28.9562 20.4883 28.9603 20.5558 28.9785 20.6201C28.9968 20.6844 29.0288 20.744 29.0723 20.7948C29.1158 20.8455 29.1698 20.8863 29.2305 20.9142C29.2913 20.942 29.3573 20.9564 29.4242 20.9563H32.0736C32.2575 20.9564 32.4353 20.8908 32.575 20.7713C32.7147 20.6517 32.8072 20.4862 32.8356 20.3045L33.441 16.4648C33.4694 16.2833 33.5617 16.1178 33.7012 15.9983C33.8408 15.8788 34.0184 15.8131 34.2021 15.813H35.959C39.6147 15.813 41.7245 14.0433 42.2755 10.5365C42.5238 9.00222 42.2861 7.79675 41.5679 6.95251C40.7792 6.02547 39.3802 5.53516 37.5227 5.53516ZM38.163 10.7345C37.8595 12.7266 36.3379 12.7266 34.8667 12.7266H34.0293L34.6168 9.00628C34.634 8.89744 34.6895 8.79831 34.7732 8.72673C34.857 8.65515 34.9635 8.61582 35.0737 8.61582H35.4575C36.4597 8.61582 37.405 8.61582 37.8935 9.18731C38.1849 9.52825 38.2741 10.0348 38.163 10.7345ZM54.1117 10.6704H51.4541C51.344 10.6704 51.2374 10.7097 51.1537 10.7813C51.0699 10.8529 51.0145 10.952 50.9973 11.0609L50.8796 11.8045L50.6938 11.5349C50.1184 10.6996 48.8355 10.4204 47.555 10.4204C44.6183 10.4204 42.11 12.6454 41.6215 15.7667C41.3675 17.3237 41.7286 18.8125 42.6115 19.8507C43.4213 20.8054 44.5801 21.2031 45.9588 21.2031C48.3251 21.2031 49.6372 19.6811 49.6372 19.6811L49.5188 20.4198C49.5082 20.4858 49.5121 20.5534 49.5301 20.6178C49.5482 20.6822 49.58 20.7419 49.6233 20.7928C49.6667 20.8437 49.7206 20.8846 49.7812 20.9127C49.8419 20.9408 49.908 20.9554 49.9748 20.9555H52.3687C52.5525 20.9556 52.7303 20.89 52.8701 20.7704C53.0098 20.6509 53.1022 20.4854 53.1306 20.3037L54.567 11.2046C54.5775 11.1387 54.5737 11.0712 54.5557 11.007C54.5376 10.9427 54.5059 10.8831 54.4626 10.8323C54.4193 10.7816 54.3655 10.7408 54.305 10.7128C54.2444 10.6849 54.1784 10.6704 54.1117 10.6704ZM50.4073 15.8446C50.1509 17.3635 48.9459 18.383 47.4089 18.383C46.6372 18.383 46.0205 18.1354 45.6245 17.6662C45.2317 17.2003 45.0824 16.5371 45.2074 15.7984C45.4468 14.2925 46.6721 13.2397 48.1855 13.2397C48.9402 13.2397 49.5537 13.4905 49.9578 13.9638C50.3627 14.4419 50.5234 15.1092 50.4073 15.8446ZM68.2655 10.6704H65.5949C65.469 10.6706 65.345 10.7015 65.2337 10.7605C65.1224 10.8195 65.0272 10.9048 64.9563 11.0089L61.273 16.4364L59.7117 11.2208C59.6638 11.0617 59.566 10.9223 59.4327 10.8232C59.2994 10.7241 59.1377 10.6705 58.9717 10.6704H56.3473C56.2737 10.6702 56.201 10.6876 56.1354 10.7212C56.0699 10.7547 56.0132 10.8035 55.9703 10.8634C55.9274 10.9232 55.8993 10.9925 55.8885 11.0654C55.8778 11.1383 55.8845 11.2127 55.9083 11.2825L58.8499 19.9181L56.0844 23.8235C56.0353 23.8928 56.0061 23.9742 56.0002 24.0589C55.9942 24.1436 56.0117 24.2283 56.0506 24.3038C56.0896 24.3792 56.1486 24.4425 56.2211 24.4867C56.2936 24.5308 56.3769 24.5541 56.4618 24.5541H59.1291C59.2536 24.5543 59.3763 24.5242 59.4867 24.4665C59.5971 24.4089 59.6919 24.3253 59.7628 24.2229L68.6453 11.3969C68.6934 11.3276 68.7217 11.2463 68.7269 11.162C68.7322 11.0777 68.7143 10.9936 68.6752 10.9187C68.636 10.8439 68.5772 10.7811 68.505 10.7374C68.4328 10.6936 68.3499 10.6704 68.2655 10.6704Z" fill="#253B80"/>
<path d="M77.1296 5.53597H71.5707C71.3868 5.53604 71.209 5.60157 71.0692 5.72075C70.9295 5.83994 70.837 6.00496 70.8083 6.18612L68.5604 20.4027C68.5499 20.4686 68.5539 20.5359 68.5721 20.6001C68.5902 20.6642 68.6221 20.7237 68.6655 20.7744C68.7089 20.8251 68.7628 20.8658 68.8235 20.8938C68.8842 20.9217 68.9503 20.9361 69.0171 20.9361H71.8697C71.9984 20.9359 72.1228 20.8899 72.2206 20.8064C72.3183 20.7229 72.3829 20.6074 72.4029 20.4805L73.0408 16.4507C73.0693 16.2694 73.1618 16.1042 73.3015 15.9849C73.4413 15.8655 73.6192 15.7999 73.8032 15.7998H75.5619C79.2239 15.7998 81.3362 14.0325 81.8888 10.5305C82.1383 8.99831 81.8986 7.79447 81.1793 6.95138C80.3902 6.02561 78.9899 5.53597 77.1296 5.53597ZM77.7708 10.7283C77.4677 12.7176 75.9438 12.7176 74.4696 12.7176H73.6317L74.2209 9.00236C74.2378 8.89366 74.2931 8.79459 74.3769 8.72306C74.4607 8.65154 74.5674 8.61229 74.6776 8.61243H75.0621C76.0649 8.61243 77.0126 8.61243 77.5018 9.18314C77.7936 9.52362 77.8822 10.0295 77.7708 10.7283ZM93.743 10.6642H91.083C90.9727 10.6639 90.8659 10.7031 90.7821 10.7747C90.6983 10.8462 90.643 10.9454 90.6263 11.0541L90.5084 11.7967L90.3215 11.5276C89.7453 10.6934 88.4612 10.4145 87.1787 10.4145C84.2375 10.4145 81.7263 12.6366 81.237 15.7536C80.9835 17.3084 81.3435 18.7952 82.2277 19.832C83.0404 20.7853 84.1993 21.1826 85.5801 21.1826C87.95 21.1826 89.2642 19.6626 89.2642 19.6626L89.1455 20.4003C89.1349 20.4664 89.1388 20.534 89.157 20.5984C89.1752 20.6628 89.2072 20.7225 89.2508 20.7734C89.2944 20.8243 89.3485 20.8651 89.4095 20.8931C89.4704 20.921 89.5368 20.9354 89.6039 20.9353H92.0005C92.1845 20.9352 92.3624 20.8696 92.5022 20.7502C92.642 20.6309 92.7344 20.4657 92.7629 20.2844L94.2022 11.1976C94.2124 11.1316 94.2081 11.0642 94.1897 11C94.1714 10.9357 94.1392 10.8762 94.0956 10.8256C94.052 10.7749 93.9979 10.7342 93.937 10.7064C93.8761 10.6785 93.81 10.6641 93.743 10.6642ZM90.033 15.8314C89.7778 17.3481 88.5693 18.3663 87.03 18.3663C86.2588 18.3663 85.6395 18.1191 85.2429 17.6505C84.8495 17.1852 84.7016 16.5229 84.8251 15.7852C85.0665 14.2814 86.2921 13.23 87.8078 13.23C88.5636 13.23 89.178 13.4805 89.5827 13.9531C89.9899 14.4306 90.1508 15.0969 90.033 15.8314ZM96.8809 5.9259L94.5996 20.4027C94.5891 20.4686 94.5931 20.5359 94.6113 20.6001C94.6294 20.6642 94.6613 20.7237 94.7047 20.7744C94.7481 20.8251 94.802 20.8658 94.8627 20.8938C94.9234 20.9217 94.9895 20.9361 95.0563 20.9361H97.3498C97.731 20.9361 98.0544 20.6605 98.1129 20.2852L100.363 6.06938C100.373 6.00349 100.369 5.93612 100.351 5.8719C100.333 5.80769 100.301 5.74816 100.257 5.6974C100.214 5.64663 100.16 5.60585 100.099 5.57784C100.039 5.54984 99.9727 5.53527 99.9058 5.53516H97.3376C97.2274 5.53555 97.1208 5.57508 97.0371 5.64668C96.9535 5.71828 96.8981 5.81726 96.8809 5.9259Z" fill="#179BD7"/>
<path d="M5.89119 23.688L6.31465 20.9927L5.37139 20.9708H0.867188L3.99737 1.08267C4.00669 1.02191 4.03749 0.966519 4.08416 0.926606C4.13083 0.886693 4.19026 0.864914 4.25161 0.865238H11.8463C14.3676 0.865238 16.1076 1.39098 17.0161 2.42867C17.442 2.91547 17.7132 3.42418 17.8444 3.98399C17.982 4.5714 17.9844 5.2732 17.85 6.12915L17.8403 6.19163V6.74008L18.2662 6.98186C18.5913 7.14692 18.8836 7.3702 19.1285 7.64066C19.4928 8.05687 19.7285 8.58586 19.8281 9.21302C19.9309 9.85803 19.8969 10.6255 19.7285 11.4945C19.5341 12.494 19.22 13.3646 18.7957 14.0769C18.4214 14.7151 17.9181 15.2678 17.3181 15.6996C16.7545 16.1004 16.0849 16.4047 15.3279 16.5994C14.5943 16.7909 13.758 16.8874 12.8406 16.8874H12.2495C11.8269 16.8874 11.4164 17.0399 11.0941 17.3133C10.7723 17.5897 10.5589 17.9715 10.4917 18.3908L10.4472 18.6334L9.69907 23.3837L9.66507 23.5582C9.65616 23.6133 9.64078 23.6409 9.61811 23.6596C9.59615 23.6776 9.56875 23.6876 9.54038 23.688H5.89119Z" fill="#253B80"/>
<path d="M18.6898 6.22266C18.6671 6.3684 18.6411 6.51739 18.6119 6.67046C17.6081 11.8414 14.1737 13.6277 9.78741 13.6277H7.55409C7.01767 13.6277 6.56565 14.0185 6.48207 14.5493L5.33863 21.8249L5.01483 23.8873C5.00193 23.9691 5.00686 24.0527 5.02926 24.1324C5.05167 24.2121 5.09103 24.286 5.14464 24.349C5.19824 24.412 5.26481 24.4626 5.33977 24.4973C5.41473 24.532 5.49629 24.55 5.57884 24.55H9.53989C10.009 24.55 10.4074 24.208 10.4813 23.744L10.5202 23.542L11.266 18.7937L11.3139 18.5332C11.3869 18.0674 11.7862 17.7255 12.2553 17.7255H12.8477C16.6854 17.7255 19.6896 16.1623 20.5677 11.6386C20.9345 9.7489 20.7446 8.17101 19.774 7.06127C19.4664 6.71798 19.099 6.4338 18.6898 6.22266Z" fill="#179BD7"/>
<path d="M17.6174 5.80929C17.2974 5.7157 16.9718 5.64265 16.6427 5.59059C15.9922 5.48954 15.3349 5.44106 14.6768 5.4456H8.71949C8.49277 5.44543 8.27347 5.52725 8.10122 5.67627C7.92898 5.8253 7.81516 6.0317 7.78034 6.25816L6.51303 14.3723L6.47656 14.609C6.51604 14.3507 6.64568 14.1152 6.84201 13.9451C7.03835 13.775 7.28842 13.6816 7.54698 13.6818H9.77693C14.1566 13.6818 17.5858 11.8838 18.5882 6.68246C18.6182 6.52847 18.6433 6.37857 18.666 6.23195C18.4015 6.09174 18.1258 5.9742 17.8419 5.88055C17.7675 5.85559 17.6926 5.83183 17.6174 5.80929Z" fill="#222D65"/>
<path d="M7.77921 6.27622C7.81368 6.05077 7.92728 5.84526 8.09937 5.69702C8.27146 5.54878 8.49061 5.46765 8.71703 5.46836H14.666C15.3708 5.46836 16.0286 5.51482 16.629 5.61265C17.0353 5.67698 17.436 5.77319 17.8274 5.90041C18.1227 5.99905 18.397 6.11562 18.6503 6.25013C18.9481 4.33686 18.6479 3.03417 17.621 1.85458C16.489 0.555966 14.4459 0 11.8315 0H4.24155C3.70751 0 3.25195 0.391296 3.16941 0.923621L0.00801856 21.112C-0.00670669 21.2058 -0.00110424 21.3016 0.0244405 21.3929C0.0499853 21.4843 0.0948662 21.569 0.155996 21.6411C0.217126 21.7133 0.293053 21.7714 0.378556 21.8112C0.464059 21.851 0.557108 21.8717 0.651302 21.8718H5.33716L6.51368 14.3516L7.77921 6.27622Z" fill="#253B80"/>
</svg>
