<svg width="111" height="24" viewBox="0 0 111 24" fill="none" xmlns="http://www.w3.org/2000/svg">
<path d="M7.7995 6.15159L6.88281 9.48264L12.1297 6.13263L8.69814 18.7731L12.1833 18.7759L17.2527 0.105469" fill="#3395FF"/>
<path d="M2.15045 13.4633L0.707031 18.7773H7.8502L10.7731 7.96706L2.15045 13.4633ZM26.9633 8.78474C26.7887 9.42544 26.4522 9.89605 25.9505 10.1966C25.45 10.4965 24.7475 10.6471 23.8407 10.6471H20.9597L21.9712 6.92356H24.8523C25.7579 6.92356 26.3801 7.07296 26.7176 7.3775C27.0552 7.68205 27.1367 8.14749 26.9633 8.79106M29.9461 8.71062C30.3128 7.36601 30.1615 6.3317 29.491 5.60768C28.8217 4.88941 27.6471 4.5274 25.9709 4.5274H19.5413L15.6708 18.7836H18.7946L20.3544 13.0375H22.4031C22.8629 13.0375 23.2249 13.1122 23.4892 13.2558C23.754 13.4052 23.9094 13.6638 23.9571 14.0373L24.5147 18.7836H27.8613L27.3189 14.3591C27.2083 13.3708 26.7502 12.7904 25.9453 12.618C26.9714 12.325 27.8311 11.8365 28.5237 11.1585C29.2114 10.4854 29.7028 9.64179 29.9461 8.71636M37.5392 13.6811C37.2773 14.6464 36.8757 15.3762 36.3327 15.8876C35.7891 16.399 35.1395 16.6518 34.3817 16.6518C33.61 16.6518 33.0867 16.4047 32.8103 15.9048C32.5332 15.4049 32.5239 14.6809 32.7812 13.7328C33.0384 12.7846 33.4487 12.0434 34.0133 11.509C34.5779 10.9746 35.2379 10.7074 35.9957 10.7074C36.7523 10.7074 37.2703 10.966 37.5322 11.4791C37.7999 11.9946 37.8058 12.7318 37.5439 13.6914L37.5392 13.6811ZM38.9081 8.63592L38.517 10.0782C38.3482 9.56105 38.0205 9.14732 37.5363 8.83703C37.0509 8.53248 36.4502 8.37734 35.7338 8.37734C34.8549 8.37734 34.011 8.60144 33.202 9.04964C32.393 9.49784 31.6829 10.1299 31.0776 10.9459C30.4723 11.7618 30.0299 12.687 29.7447 13.727C29.4654 14.7728 29.4072 15.6865 29.576 16.4794C29.7506 17.2782 30.1172 17.8872 30.6818 18.3125C31.2522 18.7434 31.9797 18.956 32.8702 18.956C33.5778 18.9596 34.2774 18.8085 34.9189 18.5136C35.5532 18.2311 36.1173 17.8154 36.5719 17.2954L36.1645 18.7986H39.1852L41.9434 8.64109H38.9168L38.9081 8.63592ZM52.7981 8.63592H44.0136L43.3996 10.8999H48.5109L41.7536 16.6633L41.1763 18.7894H50.2442L50.8582 16.5254H45.3814L52.2423 10.6758M60.5303 13.6638C60.2585 14.6636 59.8551 15.4152 59.3226 15.9048C58.79 16.399 58.1451 16.6461 57.3879 16.6461C55.8048 16.6461 55.2845 15.652 55.8246 13.6638C56.0923 12.6755 56.4974 11.9325 57.0387 11.432C57.58 10.9298 58.2359 10.6793 59.0071 10.6793C59.7637 10.6793 60.2748 10.9281 60.5378 11.4291C60.8009 11.929 60.7986 12.6743 60.5303 13.6627M62.2985 9.01803C61.6029 8.59052 60.7154 8.37676 59.6328 8.37676C58.5368 8.37676 57.5224 8.58937 56.5888 9.01459C55.6591 9.43714 54.8421 10.0679 54.2025 10.8568C53.5448 11.6555 53.0716 12.5922 52.7812 13.6609C52.496 14.7257 52.4611 15.6606 52.6823 16.461C52.9034 17.2598 53.3691 17.8746 54.0675 18.2998C54.7717 18.7285 55.6681 18.9417 56.7681 18.9417C57.8506 18.9417 58.8575 18.7268 59.783 18.2992C60.7084 17.8694 61.4999 17.2592 62.1576 16.4547C62.8153 15.6537 63.2867 14.7194 63.5777 13.6506C63.8688 12.5818 63.9037 11.6486 63.6825 10.8465C63.4613 10.0477 63.0015 9.43291 62.3089 9.00482M73.0822 11.3493L73.8563 8.58535C73.5944 8.45319 73.251 8.38423 72.8203 8.38423C72.1277 8.38423 71.4642 8.55317 70.8239 8.89564C70.2733 9.1864 69.8054 9.59667 69.4096 10.1104L69.8112 8.62212L68.9341 8.62557H66.7806L64.0044 18.7791H67.0676L68.5081 13.4713C68.7176 12.6996 69.0947 12.0922 69.6389 11.6613C70.1802 11.2286 70.8554 11.012 71.6702 11.012C72.1707 11.012 72.6364 11.1252 73.0787 11.351M81.6053 13.7127C81.3434 14.6608 80.9476 15.3848 80.4064 15.8847C79.8651 16.3869 79.2132 16.6375 78.4566 16.6375C77.7 16.6375 77.182 16.3846 76.9084 15.879C76.629 15.3704 76.6232 14.6378 76.8851 13.6747C77.147 12.7122 77.5486 11.9739 78.1015 11.4625C78.6545 10.947 79.3063 10.6896 80.063 10.6896C80.808 10.6896 81.3085 10.9539 81.5762 11.4883C81.844 12.0227 81.8498 12.764 81.5925 13.7121M83.7344 9.0347C83.1669 8.5865 82.4423 8.3624 81.5634 8.3624C80.7934 8.3624 80.0595 8.53478 79.3634 8.883C78.6679 9.23064 78.1033 9.7047 77.6697 10.3046L77.6802 10.2356L78.1941 8.62097H75.2025L74.44 11.4309L74.4168 11.5285L71.2738 23.1036H74.3411L75.9242 17.277C76.0813 17.7953 76.4015 18.2021 76.8904 18.4963C77.3793 18.7894 77.9828 18.9348 78.7004 18.9348C79.5909 18.9348 80.4407 18.7222 81.2468 18.2969C82.0558 17.8706 82.7542 17.2569 83.3479 16.4639C83.9416 15.6709 84.3822 14.7516 84.6633 13.7115C84.9485 12.6697 85.0067 11.7406 84.8437 10.9275C84.6778 10.1133 84.3106 9.4829 83.7437 9.037M93.9087 13.6713C93.6468 14.6309 93.2452 15.3664 92.7039 15.8721C92.1626 16.3812 91.5108 16.6346 90.7541 16.6346C89.98 16.6346 89.4562 16.3875 89.1827 15.8876C88.9033 15.3877 88.8975 14.6636 89.1536 13.7155C89.4097 12.7674 89.8183 12.0262 90.3828 11.4918C90.9474 10.9574 91.608 10.6907 92.3658 10.6907C93.1224 10.6907 93.6346 10.9493 93.9023 11.4607C94.17 11.9739 94.1718 12.7111 93.911 13.673L93.9087 13.6713ZM95.2765 8.62327L94.8848 10.0656C94.716 9.54553 94.39 9.13181 93.907 8.82439C93.4181 8.51754 92.8186 8.3647 92.1027 8.3647C91.2238 8.3647 90.3753 8.5888 89.5651 9.037C88.7561 9.4852 88.046 10.1138 87.4407 10.9275C86.8354 11.7411 86.393 12.6686 86.1079 13.7086C85.8256 14.7527 85.7703 15.6681 85.9391 16.4645C86.1096 17.2575 86.4769 17.87 87.0449 18.2975C87.6118 18.7227 88.3428 18.9376 89.2333 18.9376C89.9492 18.9376 90.6331 18.7905 91.282 18.4952C91.9148 18.2115 92.4774 17.7952 92.9309 17.2753L92.5235 18.7796H95.5442L98.3018 8.62615H95.2811L95.2765 8.62327ZM110.984 8.62672L110.985 8.62385H109.129C109.069 8.62385 109.017 8.62672 108.963 8.62787H107.999L107.505 9.30592L107.383 9.46681L107.33 9.54726L103.416 14.9303L102.607 8.62672H99.4013L101.025 18.2056L97.4398 23.1071H100.635L101.502 21.8929C101.527 21.8573 101.549 21.8274 101.578 21.7895L102.591 20.3702L102.62 20.3299L107.156 13.9804L110.979 8.63649L110.985 8.63304H110.984V8.62672Z" fill="#072654"/>
</svg>
