<svg width="130" height="26" viewBox="0 0 130 26" fill="none" xmlns="http://www.w3.org/2000/svg">
<path d="M15.0828 1.26801C28.1272 1.26801 41.1717 1.23359 54.2161 1.27949C63.1847 1.31104 72.1504 1.47168 81.119 1.54626C94.1144 1.65526 107.113 1.73558 120.108 1.83884C121.401 1.84745 122.694 1.93637 123.988 1.94497C127.714 1.97079 129.911 4.18525 129.579 7.89418C129.328 10.7082 128.782 13.4963 128.349 16.2959C128.214 17.1823 128.026 18.06 127.85 18.9407C127.33 21.5682 126.147 22.7012 123.445 23.2893C121.257 23.7626 119.046 23.5245 116.846 23.5675C109.032 23.7167 101.215 23.774 93.4015 23.8744C79.162 24.0609 64.9225 24.2445 50.6829 24.4424C37.881 24.6202 25.0819 24.8153 12.2799 25.0075C10.6028 25.0333 8.92568 25.1337 7.25146 25.1107C3.82798 25.0649 1.45232 22.8705 1.23294 19.4943C0.950055 15.1629 0.794179 10.8258 0.638304 6.48576C0.488202 2.2978 3.44117 0.912324 6.30466 0.869297C9.23165 0.82627 12.1558 0.860692 15.0828 0.860692C15.0828 0.99551 15.0828 1.1332 15.0828 1.26801ZM92.1631 12.8566C92.1631 11.7236 92.1342 10.5905 92.1747 9.46037C92.2006 8.73464 91.9322 8.43919 91.1817 8.4564C89.6489 8.48796 88.1104 8.54533 86.5862 8.42772C85.9339 8.37895 85.5702 9.25671 85.0939 8.88381C84.251 8.22406 83.3475 8.57975 82.4757 8.46214C81.0584 8.26995 79.6556 8.95552 78.2209 8.48509C77.8514 8.36461 77.2915 8.36748 77.2106 8.96412C77.1558 9.36571 77.0201 10.0169 77.4675 10.1086C78.7232 10.3668 78.3479 11.2704 78.3681 12.0018C78.4057 13.3213 78.4519 14.6494 78.3566 15.9632C78.2787 17.0561 78.8213 17.2081 79.7248 17.2081C80.6197 17.2081 81.2028 17.0618 81.1624 15.9833C81.1046 14.4286 81.1797 12.8681 81.1364 11.3134C81.1133 10.4844 81.3384 10.0541 82.265 10.189C83.0098 10.298 83.9739 9.95661 83.9075 11.3105C83.8324 12.8652 83.945 14.4257 83.8728 15.9804C83.8209 17.0762 84.3982 17.2081 85.2902 17.2081C86.185 17.2081 86.7594 17.0676 86.7132 15.9775C86.644 14.4228 86.7363 12.8624 86.6815 11.3077C86.6497 10.3955 87.0654 10.1259 87.891 10.2234C88.6328 10.3094 89.62 9.95661 89.5738 11.3134C89.519 12.9628 89.5883 14.615 89.5536 16.2673C89.5334 17.1995 90.1396 17.2052 90.792 17.1938C91.4559 17.1794 92.2006 17.3028 92.1718 16.2558C92.14 15.1227 92.1631 13.9897 92.1631 12.8566ZM75.5075 12.8538C75.5075 11.7207 75.4931 10.5877 75.5133 9.45463C75.5249 8.84365 75.3719 8.45354 74.6473 8.45927C73.0164 8.47648 71.3855 8.51377 69.7575 8.44206C69.1802 8.41624 68.8742 9.27392 68.4037 8.88667C67.6185 8.2384 66.7554 8.56254 65.9299 8.46214C64.426 8.27856 62.9307 8.98133 61.4124 8.48222C61.0833 8.37322 60.581 8.40477 60.5464 8.94691C60.5204 9.3485 60.3299 10.0082 60.7773 10.1C62.0388 10.3668 61.6404 11.279 61.6635 12.0018C61.7068 13.3213 61.7386 14.6494 61.6577 15.9661C61.5913 17.0532 62.1427 17.2081 63.0491 17.2081C63.9612 17.2081 64.5068 17.0303 64.4635 15.9603C64.4 14.4056 64.4837 12.8423 64.4346 11.2876C64.4086 10.4242 64.7002 10.0599 65.5979 10.189C66.3427 10.2951 67.2952 9.94227 67.2144 11.3134C67.122 12.914 67.2259 14.5232 67.1826 16.1296C67.1538 17.2167 67.8639 17.1909 68.6173 17.1938C69.3851 17.1966 70.0519 17.188 70.0115 16.1037C69.9509 14.5003 70.0404 12.8911 69.9826 11.2876C69.9451 10.2119 70.583 10.1804 71.3682 10.2176C72.1418 10.2549 72.9327 10.1431 72.8779 11.345C72.8057 12.8997 72.9096 14.463 72.8432 16.0177C72.8028 17.0044 73.2618 17.2081 74.1364 17.2081C75.0399 17.2081 75.6115 17.0561 75.5277 15.9689C75.444 14.9363 75.5075 13.895 75.5075 12.8538ZM22.6889 17.1938C23.119 17.1938 23.552 17.1938 23.9821 17.1938C28.0406 17.1938 28.0175 17.1938 27.9021 13.1894C27.8761 12.2858 27.5961 11.9014 26.6464 11.9445C25.1627 12.0133 23.6761 11.9961 22.1924 12.0334C21.4736 12.0506 21.0089 11.9158 21.032 11.0294C21.0551 10.1717 21.5718 10.1746 22.1809 10.1775C23.8118 10.1832 25.4398 10.166 27.0707 10.1832C27.7058 10.189 28.0493 9.99677 28.0579 9.29973C28.0666 8.56254 27.6596 8.45354 27.0534 8.45927C25.1829 8.47361 23.3153 8.46501 21.4448 8.46501C17.6143 8.46501 17.6634 8.46501 17.6432 12.237C17.6374 13.4131 18.0646 13.7 19.1557 13.6426C20.5903 13.568 22.0308 13.634 23.4683 13.6197C24.0542 13.6139 24.5219 13.6856 24.5334 14.42C24.5479 15.2432 23.9532 15.1399 23.4394 15.1457C21.9066 15.1543 20.371 15.1572 18.8382 15.1457C18.1281 15.1399 17.6547 15.2776 17.6518 16.1554C17.6489 17.0044 18.0675 17.2081 18.8064 17.1966C20.0996 17.1794 21.3928 17.1938 22.6889 17.1938ZM11.0762 8.46501C10.6461 8.46501 10.2131 8.46501 9.78299 8.46501C5.58879 8.46501 5.61188 8.46501 5.8024 12.5899C5.83992 13.4045 6.13435 13.6541 6.91662 13.6369C8.49558 13.5996 10.0774 13.6455 11.6593 13.6168C12.3059 13.6053 12.6753 13.8118 12.6638 14.4831C12.6523 15.1887 12.1182 15.1457 11.6391 15.1485C10.1063 15.1543 8.57351 15.1658 7.04074 15.1457C6.27291 15.1371 5.7793 15.2662 5.79662 16.2242C5.81106 17.1335 6.31909 17.1995 6.99744 17.1966C8.67454 17.1909 10.3516 17.1966 12.0259 17.1966C16.1306 17.1966 16.1075 17.1966 15.9747 13.1234C15.9458 12.2858 15.6947 11.9129 14.8143 11.9502C13.4287 12.0104 12.0403 12.0219 10.6519 12.0276C9.96484 12.0305 9.14794 12.237 9.16238 11.0696C9.17681 9.98817 9.93021 10.1947 10.5681 10.189C11.9566 10.1746 13.3479 10.2004 14.7364 10.1775C15.3541 10.166 16.1594 10.4299 16.2027 9.3485C16.246 8.2384 15.4378 8.48509 14.8143 8.47361C13.5673 8.45067 12.3232 8.46501 11.0762 8.46501ZM54.5336 8.46501C53.2405 8.46501 51.9473 8.48509 50.657 8.4564C49.9815 8.44206 49.7044 8.71743 49.7073 9.36858C49.7159 11.6318 49.7217 13.895 49.7015 16.1582C49.6957 16.8725 49.9902 17.1966 50.7176 17.1938C53.2549 17.1852 55.7922 17.188 58.3295 17.188C58.9732 17.188 59.2792 16.8983 59.2734 16.2357C59.2561 13.9725 59.2532 11.7092 59.2763 9.44603C59.285 8.72891 59.0223 8.42772 58.2689 8.45353C57.0248 8.49369 55.7778 8.46501 54.5336 8.46501ZM98.5078 8.46501C97.2146 8.46501 95.9214 8.49082 94.6283 8.45353C93.8922 8.43346 93.6093 8.68875 93.6237 9.43455C93.6584 11.6519 93.6584 13.8663 93.6237 16.0837C93.6122 16.8553 93.9643 17.0417 94.6687 17.036C97.1598 17.0131 99.648 17.0274 102.139 17.0245C102.416 17.0245 102.812 17.1134 102.916 16.8123C103.21 15.9632 103.3 15.0596 102.867 14.2421C102.656 13.8463 100.246 13.8807 100.159 14.2651C99.8241 15.7595 98.6723 15.226 97.7717 15.312C97.0126 15.3838 96.5074 15.2432 96.4959 14.2737C96.4843 13.284 96.9231 13.0431 97.7948 13.0976C98.4155 13.1349 99.0389 13.1062 99.6625 13.1062C103.354 13.1062 103.334 13.1062 103.118 9.44029C103.074 8.70596 102.826 8.43919 102.096 8.45927C100.904 8.48796 99.7057 8.46501 98.5078 8.46501ZM43.657 8.46501C42.4591 8.46501 41.2612 8.49656 40.0661 8.45353C39.281 8.42485 38.9461 8.67441 38.9634 9.49766C39.0067 11.715 38.9952 13.9323 38.9663 16.1468C38.9577 16.8639 39.229 17.1938 39.9593 17.1909C42.4504 17.1823 44.9415 17.1909 47.4327 17.1852C47.8108 17.1852 48.2005 17.1852 48.4054 16.7549C49.13 15.226 48.2611 13.895 46.5869 13.9294C45.949 13.9438 45.4294 14.0069 45.3774 14.7785C45.3428 15.2862 44.9762 15.3149 44.5663 15.3608C42.029 15.6448 41.8731 15.5157 41.8731 13.0259C41.8731 12.412 41.8731 11.7982 41.876 11.1872C41.8789 10.7053 41.8731 10.123 42.5341 10.1459C43.4434 10.1775 44.904 9.62674 45.1523 10.4729C45.5737 11.9186 46.4772 11.5429 47.3518 11.5888C48.7114 11.6576 48.3564 10.6422 48.4054 9.89924C48.4603 9.08747 48.4372 8.37895 47.2537 8.4478C46.0558 8.51951 44.8549 8.46501 43.657 8.46501ZM33.5193 17.1938C34.1919 17.1938 34.8616 17.1938 35.5342 17.1938C37.8781 17.1938 37.8839 17.1794 37.7568 14.9363C37.7251 14.3884 37.702 13.7659 36.963 13.8836C36.1635 14.0126 34.9886 13.2181 34.6249 14.4572C34.368 15.335 33.86 15.2805 33.2365 15.2575C32.3301 15.226 32.509 14.5404 32.5004 14.0069C32.4802 12.6386 32.4167 11.2618 32.5148 9.90211C32.6043 8.64285 32.0328 8.42198 30.9099 8.43346C29.8418 8.44206 29.302 8.64859 29.4117 9.84474C29.5157 10.9692 29.4348 12.108 29.4348 13.241C29.4319 17.1938 29.4319 17.1938 33.5193 17.1938ZM107.756 13.6283C107.756 12.7304 107.759 11.8326 107.754 10.9348C107.751 10.5188 107.834 10.1717 108.345 10.1345C108.732 10.1058 109.275 10.0627 109.33 10.4844C109.552 12.1596 110.834 11.4396 111.682 11.4912C113.169 11.5859 112.583 10.3898 112.69 9.65829C112.802 8.88094 112.574 8.47935 111.624 8.43632C109.376 8.33306 107.139 8.78628 104.893 8.47648C104.541 8.42772 104.062 8.37322 103.987 8.90962C103.935 9.26818 103.799 9.79598 104.203 9.93653C105.251 10.3008 104.962 11.1183 104.977 11.824C105.003 13.1951 105 14.5634 104.98 15.9345C104.968 16.6746 105.199 17.0188 106.048 17.0561C107.263 17.1077 108.01 16.9069 107.771 15.4698C107.673 14.8703 107.754 14.2421 107.756 13.6283ZM118.431 10.1058C117.903 11.3736 117.299 11.6031 116.428 10.5619C116.428 11.6404 116.436 12.4866 116.425 13.3299C116.416 13.7717 116.543 14.0671 117.051 14.0671C118.076 14.0671 119.101 14.0671 120.417 14.0671C118.835 13.0144 119.733 12.4292 120.53 11.7638C121.147 11.2474 121.696 10.6508 122.253 10.0714C122.565 9.74435 122.683 9.33129 122.536 8.89528C122.383 8.43632 121.961 8.46788 121.58 8.46788C119.288 8.46501 116.993 8.47648 114.702 8.46214C114.136 8.45927 113.83 8.58548 113.821 9.2395C113.81 9.94801 114.113 10.1316 114.762 10.1144C115.934 10.0828 117.112 10.1058 118.431 10.1058ZM115.894 12.8681C114.941 13.9839 114.277 14.7211 113.665 15.4956C112.843 16.5311 113.091 17.1938 114.41 17.2368C116.803 17.3142 119.202 17.2511 121.598 17.2741C122.469 17.2827 122.593 16.7836 122.625 16.0837C122.66 15.3006 122.155 15.3608 121.612 15.2489C120.224 14.9621 118.613 16.0148 117.421 14.5835C116.174 15.0395 115.873 14.3138 115.894 12.8681Z" fill="#2B5EAB"/>
<path d="M92.1666 12.861C92.1666 13.994 92.1435 15.1271 92.1724 16.2572C92.2013 17.3042 91.4565 17.1809 90.7926 17.1952C90.1373 17.2096 89.5341 17.2038 89.5543 16.2687C89.5889 14.6193 89.5196 12.9642 89.5745 11.3149C89.6206 9.95807 88.6334 10.3109 87.8916 10.2248C87.066 10.1302 86.6504 10.3998 86.6821 11.3091C86.737 12.8638 86.6446 14.4243 86.7139 15.979C86.7629 17.069 86.1856 17.2096 85.2908 17.2096C84.3988 17.2096 83.8215 17.0747 83.8735 15.9819C83.9485 14.4271 83.8331 12.8667 83.9081 11.312C83.9745 9.95807 83.0104 10.2994 82.2656 10.1904C81.3391 10.0556 81.111 10.4859 81.137 11.3149C81.1832 12.8696 81.1052 14.43 81.163 15.9847C81.2034 17.0661 80.6203 17.2096 79.7255 17.2096C78.8191 17.2096 78.2764 17.0575 78.3572 15.9646C78.4525 14.6509 78.4063 13.3228 78.3688 12.0033C78.3486 11.2747 78.7238 10.3683 77.4682 10.1101C77.0207 10.0183 77.1564 9.36716 77.2112 8.96558C77.2921 8.36894 77.855 8.36607 78.2215 8.48654C79.6562 8.95697 81.0591 8.27141 82.4764 8.4636C83.3452 8.5812 84.2516 8.22551 85.0945 8.88526C85.5708 9.25816 85.9345 8.37754 86.5869 8.42917C88.111 8.54678 89.6495 8.48941 91.1823 8.45786C91.9328 8.44065 92.2013 8.7361 92.1753 9.46182C92.1377 10.5949 92.1666 11.7279 92.1666 12.861Z" fill="#F3F6FA"/>
<path d="M75.5097 12.8586C75.5097 13.897 75.4462 14.9411 75.527 15.9737C75.6107 17.0638 75.0392 17.2129 74.1357 17.2129C73.261 17.2129 72.7992 17.0093 72.8425 16.0225C72.9089 14.4678 72.8049 12.9045 72.8771 11.3498C72.932 10.1479 72.141 10.2569 71.3674 10.2225C70.5823 10.1852 69.9415 10.2167 69.9819 11.2924C70.0396 12.8959 69.9501 14.5051 70.0107 16.1086C70.054 17.1928 69.3843 17.2015 68.6165 17.1986C67.8631 17.1957 67.153 17.2215 67.1819 16.1344C67.2252 14.5309 67.1213 12.9188 67.2136 11.3182C67.2945 9.94709 66.3419 10.297 65.5972 10.1938C64.6994 10.0676 64.4079 10.4319 64.4339 11.2924C64.4829 12.85 64.3992 14.4104 64.4627 15.9651C64.506 17.0322 63.9605 17.2129 63.0483 17.2129C62.1419 17.2129 61.5906 17.058 61.657 15.9709C61.7378 14.6542 61.706 13.3261 61.6627 12.0066C61.6397 11.2838 62.038 10.3716 60.7766 10.1049C60.3291 10.0102 60.5225 9.35331 60.5456 8.95173C60.5803 8.40959 61.0797 8.37803 61.4116 8.48703C62.93 8.98615 64.4252 8.28337 65.9291 8.46696C66.7547 8.56735 67.6178 8.24321 68.4029 8.89149C68.8734 9.27873 69.1794 8.42106 69.7567 8.44688C71.3848 8.51859 73.0157 8.48417 74.6466 8.46409C75.3711 8.45548 75.5241 8.84846 75.5126 9.45945C75.4952 10.5925 75.5097 11.7255 75.5097 12.8586Z" fill="#F3F6FA"/>
<path d="M22.6864 17.1956C21.3932 17.1956 20.0972 17.1842 18.804 17.2014C18.065 17.21 17.6493 17.0092 17.6493 16.1601C17.6522 15.2852 18.1256 15.1447 18.8357 15.1504C20.3685 15.1619 21.9042 15.159 23.4369 15.1504C23.9507 15.1475 24.5454 15.2479 24.531 14.4247C24.5165 13.6904 24.0518 13.6187 23.4658 13.6244C22.0283 13.6387 20.585 13.5728 19.1533 13.6473C18.0621 13.7047 17.6349 13.415 17.6407 12.2418C17.6609 8.46688 17.6118 8.46688 21.4423 8.46688C23.3128 8.46688 25.1804 8.47548 27.0509 8.46114C27.6571 8.4554 28.0641 8.56727 28.0555 9.3016C28.0468 9.99864 27.7033 10.1908 27.0683 10.1851C25.4373 10.1679 23.8093 10.1851 22.1784 10.1794C21.5693 10.1765 21.0526 10.1736 21.0295 11.0313C21.0064 11.9148 21.4712 12.0525 22.1899 12.0353C23.6736 11.998 25.1602 12.0152 26.6439 11.9463C27.5936 11.9033 27.8736 12.2877 27.8996 13.1912C28.0151 17.1956 28.0381 17.1956 23.9796 17.1956C23.5495 17.1956 23.1165 17.1956 22.6864 17.1956Z" fill="#F3F6FA"/>
<path d="M11.0743 8.46513C12.3184 8.46513 13.5654 8.45078 14.8095 8.47086C15.433 8.48234 16.2412 8.23565 16.1979 9.34575C16.1546 10.4272 15.3522 10.1633 14.7316 10.1747C13.3431 10.2006 11.9547 10.1719 10.5633 10.1862C9.9254 10.1919 9.16912 9.98828 9.15757 11.0668C9.14314 12.2314 9.96293 12.0278 10.647 12.0249C12.0355 12.022 13.4239 12.0077 14.8095 11.9474C15.6928 11.9102 15.941 12.2802 15.9699 13.1207C16.1056 17.1939 16.1258 17.1939 12.0211 17.1939C10.344 17.1939 8.66685 17.191 6.99264 17.1939C6.31429 17.1968 5.80625 17.1308 5.79182 16.2215C5.7745 15.2634 6.2681 15.1343 7.03593 15.1429C8.56871 15.163 10.1015 15.1515 11.6343 15.1458C12.1134 15.1429 12.6474 15.186 12.659 14.4803C12.6705 13.8091 12.3011 13.6026 11.6545 13.614C10.0755 13.6427 8.49366 13.5968 6.91181 13.6341C6.12955 13.6513 5.83512 13.4046 5.79759 12.5871C5.60708 8.45939 5.5811 8.46226 9.77819 8.46226C10.2141 8.46513 10.6442 8.46513 11.0743 8.46513Z" fill="#F3F6FA"/>
<path d="M54.5275 8.46612C55.7716 8.46612 57.0186 8.49481 58.2628 8.45465C59.0162 8.42883 59.276 8.73002 59.2702 9.44714C59.2471 11.7104 59.25 13.9736 59.2673 16.2368C59.2731 16.8994 58.97 17.1863 58.3234 17.1891C55.7861 17.1891 53.2488 17.1863 50.7115 17.1949C49.9841 17.1977 49.6896 16.8736 49.6954 16.1594C49.7156 13.8961 49.7098 11.6329 49.7012 9.36969C49.6983 8.71855 49.9754 8.44317 50.6509 8.45752C51.9412 8.4862 53.2343 8.46612 54.5275 8.46612ZM56.5337 12.9524C56.5337 12.482 56.4846 12.0058 56.5424 11.5411C56.678 10.4597 56.1902 10.1729 55.1481 10.2044C52.0133 10.2962 52.5185 9.85446 52.4694 12.8147C52.4636 13.1446 52.5127 13.4802 52.4607 13.8015C52.2645 15.0263 52.7148 15.4394 54.0137 15.3906C56.5308 15.296 56.5337 15.3705 56.5337 12.9524Z" fill="#F3F6FA"/>
<path d="M98.5144 8.4666C99.7123 8.4666 100.91 8.48955 102.105 8.458C102.836 8.43792 103.084 8.70469 103.127 9.43901C103.341 13.1078 103.364 13.1049 99.6719 13.1049C99.0484 13.1049 98.4249 13.1365 97.8043 13.0963C96.9296 13.0418 96.4909 13.2828 96.5053 14.2724C96.5168 15.2419 97.022 15.3796 97.7812 15.3108C98.6847 15.2276 99.8335 15.7611 100.168 14.2638C100.255 13.8794 102.665 13.845 102.876 14.2408C103.309 15.0555 103.217 15.959 102.925 16.811C102.821 17.1093 102.426 17.0233 102.149 17.0233C99.6574 17.029 97.1663 17.0118 94.6781 17.0347C93.9738 17.0405 93.6216 16.8569 93.6332 16.0824C93.6678 13.8651 93.6678 11.6506 93.6332 9.43328C93.6216 8.68747 93.9016 8.43218 94.6377 8.45226C95.928 8.49242 97.2212 8.4666 98.5144 8.4666ZM98.2084 11.7395C98.5865 11.7395 98.9676 11.7367 99.3457 11.7395C100.059 11.7424 100.119 11.2347 99.9981 10.7757C99.6632 9.51073 98.5952 10.2651 97.8735 10.1447C97.377 10.0615 96.5486 9.79184 96.4966 10.8187C96.4707 11.3379 96.5371 11.7625 97.2154 11.7453C97.5445 11.7338 97.8764 11.7424 98.2084 11.7395Z" fill="#F3F6FA"/>
<path d="M43.6529 8.46435C44.8509 8.46435 46.0517 8.51885 47.2438 8.45001C48.4273 8.38116 48.4504 9.08968 48.3956 9.90145C48.3465 10.6444 48.6987 11.6598 47.342 11.591C46.4702 11.548 45.5667 11.9209 45.1424 10.4751C44.8942 9.62895 43.4364 10.1797 42.5243 10.1481C41.8632 10.1252 41.869 10.7046 41.8661 11.1894C41.8632 11.8032 41.8632 12.4171 41.8632 13.0281C41.8632 15.5179 42.0191 15.647 44.5564 15.363C44.9663 15.3171 45.33 15.2856 45.3676 14.7807C45.4224 14.0091 45.9391 13.946 46.577 13.9317C48.2512 13.8944 49.1201 15.2282 48.3956 16.7571C48.1906 17.1874 47.8009 17.1874 47.4228 17.1874C44.9317 17.196 42.4406 17.1874 39.9494 17.1931C39.2191 17.196 38.9478 16.8661 38.9565 16.149C38.9853 13.9317 38.994 11.7143 38.9536 9.49987C38.9391 8.67662 39.2711 8.42706 40.0562 8.45574C41.2571 8.4959 42.455 8.46435 43.6529 8.46435Z" fill="#F3F6FA"/>
<path d="M33.5151 17.1963C29.4277 17.1963 29.4277 17.1963 29.4277 13.2435C29.4277 12.1105 29.5085 10.9688 29.4046 9.84725C29.2949 8.6511 29.8347 8.44457 30.9027 8.43596C32.0256 8.42449 32.5972 8.64536 32.5077 9.90462C32.4095 11.2671 32.473 12.6411 32.4932 14.0094C32.5019 14.5429 32.3229 15.2285 33.2293 15.2601C33.8528 15.2801 34.3608 15.3346 34.6178 14.4598C34.9815 13.2206 36.1563 14.0151 36.9559 13.8861C37.6948 13.7684 37.7179 14.3909 37.7497 14.9388C37.8796 17.1848 37.8738 17.1963 35.527 17.1963C34.8573 17.1963 34.1848 17.1963 33.5151 17.1963Z" fill="#F3F6FA"/>
<path d="M107.756 13.6323C107.756 14.2462 107.672 14.8744 107.77 15.471C108.01 16.911 107.262 17.1118 106.047 17.0573C105.198 17.02 104.967 16.6758 104.979 15.9357C104.999 14.5646 105.002 13.1963 104.976 11.8252C104.962 11.1195 105.25 10.2992 104.203 9.93774C103.798 9.79718 103.934 9.26938 103.986 8.91082C104.061 8.37442 104.54 8.42892 104.892 8.47769C107.138 8.78748 109.378 8.33426 111.624 8.43753C112.574 8.48055 112.802 8.88214 112.689 9.6595C112.585 10.391 113.168 11.5842 111.682 11.4924C110.833 11.4379 109.551 12.1608 109.329 10.4856C109.271 10.0611 108.729 10.1041 108.345 10.1357C107.837 10.1758 107.75 10.52 107.753 10.936C107.762 11.8367 107.756 12.7345 107.756 13.6323Z" fill="#F3F6FA"/>
<path d="M118.441 10.1066C117.122 10.1066 115.944 10.0865 114.769 10.1152C114.12 10.1324 113.817 9.94594 113.828 9.24029C113.84 8.58341 114.143 8.46007 114.709 8.46294C117.001 8.47728 119.296 8.46868 121.588 8.46868C121.969 8.46868 122.39 8.43712 122.543 8.89608C122.687 9.33209 122.572 9.74515 122.26 10.0722C121.703 10.6545 121.155 11.2482 120.537 11.7645C119.74 12.43 118.842 13.0152 120.424 14.0679C119.108 14.0679 118.083 14.0679 117.059 14.0679C116.55 14.0679 116.426 13.7725 116.432 13.3307C116.447 12.4874 116.435 11.6412 116.435 10.5627C117.31 11.6039 117.91 11.3716 118.441 10.1066Z" fill="#F3F6FA"/>
<path d="M115.894 12.8672C115.871 14.3129 116.171 15.0386 117.415 14.5825C118.607 16.0139 120.218 14.964 121.606 15.248C122.149 15.3599 122.654 15.2997 122.619 16.0827C122.591 16.7827 122.464 17.2818 121.592 17.2732C119.196 17.2502 116.797 17.3133 114.404 17.2359C113.088 17.1928 112.84 16.5302 113.659 15.4947C114.28 14.7202 114.944 13.983 115.894 12.8672Z" fill="#F3F6FA"/>
<path d="M56.5388 12.9515C56.5388 15.3696 56.536 15.295 54.0189 15.3897C52.7199 15.4384 52.2696 15.0254 52.4659 13.8005C52.5178 13.4793 52.4688 13.1436 52.4745 12.8138C52.5236 9.85351 52.0185 10.2953 55.1533 10.2035C56.1982 10.1719 56.6832 10.4588 56.5475 11.5402C56.4898 12.0049 56.5388 12.481 56.5388 12.9515Z" fill="#2B5EAB"/>
<path d="M98.1957 11.736C97.8638 11.736 97.5318 11.7303 97.1998 11.7389C96.5215 11.7561 96.4551 11.3316 96.4811 10.8124C96.5331 9.78834 97.3586 10.058 97.858 10.1383C98.5825 10.2588 99.6506 9.50436 99.9825 10.7694C100.104 11.2283 100.043 11.7389 99.3301 11.7332C98.952 11.7332 98.5739 11.736 98.1957 11.736Z" fill="#2B5EAB"/>
</svg>
