<svg width="71" height="30" viewBox="0 0 71 30" fill="none" xmlns="http://www.w3.org/2000/svg">
<path d="M4.98189 11.4666C4.98189 10.7049 5.612 10.4118 6.65582 10.4118C8.15224 10.4118 10.0426 10.8612 11.5391 11.6621V7.07138C9.90481 6.42679 8.29014 6.17283 6.65582 6.17283C2.65834 6.17283 0 8.24353 0 11.7012C0 17.0925 7.48267 16.2331 7.48267 18.5578C7.48267 19.4562 6.69514 19.7493 5.59234 19.7493C3.95802 19.7493 1.87067 19.0851 0.216544 18.1865V22.8357C2.04789 23.6171 3.8989 23.9491 5.59234 23.9491C9.68813 23.9491 12.504 21.9371 12.504 18.4405C12.4844 12.6193 4.98189 13.6545 4.98189 11.4666ZM18.2933 2.26602L13.4886 3.28173L13.4689 18.9287C13.4689 21.82 15.6547 23.9491 18.5691 23.9491C20.1837 23.9491 21.3652 23.6561 22.0149 23.3045V19.339C21.385 19.593 18.2736 20.4915 18.2736 17.6004V10.6657H22.0149V6.50494H18.2736L18.2933 2.26602ZM28.1391 7.95042L27.824 6.50494H23.5706V23.5974H28.4935V12.0137C29.6552 10.5095 31.6244 10.783 32.2349 10.9978V6.50494C31.6048 6.27048 29.3009 5.84071 28.1391 7.95042ZM33.436 6.50494H38.3785V23.5974H33.436V6.50494ZM33.436 5.02031L38.3785 3.96546V0L33.436 1.03535V5.02018V5.02031ZM48.6574 6.17283C46.7277 6.17283 45.4871 7.07138 44.798 7.6966L44.5419 6.48544H40.2099V29.2623L45.1327 28.2271L45.1525 22.6989C45.8613 23.2068 46.9049 23.9296 48.6378 23.9296C52.1626 23.9296 55.3722 21.1166 55.3722 14.9243C55.3526 9.25924 52.1035 6.17283 48.6574 6.17283ZM47.476 19.632C46.3142 19.632 45.6249 19.2219 45.1525 18.7139L45.1327 11.4666C45.6447 10.9002 46.3536 10.5095 47.476 10.5095C49.2679 10.5095 50.5085 12.502 50.5085 15.0609C50.5085 17.6786 49.2876 19.632 47.476 19.632ZM70.8891 15.1196C70.8891 10.1188 68.4473 6.17283 63.7805 6.17283C59.0938 6.17283 56.2582 10.1189 56.2582 15.0806C56.2582 20.9603 59.6059 23.9296 64.4105 23.9296C66.7538 23.9296 68.526 23.4021 69.865 22.6599V18.7529C68.5262 19.4172 66.9902 19.8274 65.0407 19.8274C63.1306 19.8274 61.4371 19.1632 61.2206 16.8582H70.8497C70.8497 16.6041 70.8891 15.5884 70.8891 15.1196ZM61.1615 13.2638C61.1615 11.0565 62.5203 10.1383 63.7608 10.1383C64.9619 10.1383 66.242 11.0565 66.242 13.2638H61.1615Z" fill="#6772E5"/>
</svg>
